<svg xmlns="http://www.w3.org/2000/svg" xmlns:xlink="http://www.w3.org/1999/xlink" viewBox="0 0 237.1 236.62"><defs><style>.cls-1,.cls-5,.cls-6,.cls-7{fill:none;}.cls-2{filter:url(#AI_Shadow_1);}.cls-3{fill:#fff;}.cls-4{clip-path:url(#clip-path);}.cls-5,.cls-6,.cls-7{stroke:#000;}.cls-5{stroke-linecap:square;stroke-linejoin:bevel;}.cls-5,.cls-6{stroke-width:0.5px;}.cls-6,.cls-7{stroke-miterlimit:10;}</style><filter id="AI_Shadow_1" name="AI_Shadow_1"><feGaussianBlur result="blur" stdDeviation="2" in="SourceAlpha"/><feOffset result="offsetBlurredAlpha" dx="4" dy="4" in="blur"/><feMerge><feMergeNode in="offsetBlurredAlpha"/><feMergeNode in="SourceGraphic"/></feMerge></filter><clipPath id="clip-path" transform="translate(-62.27 -59.95)"><path class="cls-1" d="M290,179.93A109.59,109.59,0,1,1,207.77,73.65,109.39,109.39,0,0,1,290,179.93Z"/></clipPath></defs><g id="Layer_1" data-name="Layer 1" class="cls-2"><path class="cls-3" d="M180,289.5a109.49,109.49,0,1,1,78.31-33A109.62,109.62,0,0,1,180,289.5Z" transform="translate(-62.27 -59.95)"/><path d="M180,71a109,109,0,1,1-77.07,31.93A109,109,0,0,1,180,71m0-1a109.9,109.9,0,1,0,27.58,3.49A110,110,0,0,0,180,70Z" transform="translate(-62.27 -59.95)"/><g class="cls-4"><polygon class="cls-5" points="142.23 95.55 203.23 203.55 142.23 2.56 142.23 95.55"/><polygon class="cls-5" points="94.23 143.56 33.23 35.56 94.24 236.55 94.23 143.56"/><polyline class="cls-6" points="53.27 221.28 236.64 103.78 84.27 4.78 7.79 168.21 161.99 231.62 214.73 49.38 3.04 84.67 190.37 215.57 232.13 156.37 0.6 146.21 83.81 235.18 130.54 0.05"/><path class="cls-6" d="M234.4,161" transform="translate(-62.27 -59.95)"/></g><line class="cls-6" x1="9.23" y1="132.55" x2="188.23" y2="35.55"/><line class="cls-7" x1="209.23" y1="59.55" x2="13.23" y2="87.55"/><line class="cls-7" x1="33.23" y1="189.55" x2="220.23" y2="79.55"/><path d="M205.13,177.4H162.58v30.14H210v9.05H148.45V133h59.11v9.05h-45v26.42h42.55Z" transform="translate(-62.27 -59.95)"/></g></svg>